<?xml version="1.0" encoding="UTF-8" standalone="no"?>
<!DOCTYPE svg PUBLIC "-//W3C//DTD SVG 1.1//EN" "http://www.w3.org/Graphics/SVG/1.1/DTD/svg11.dtd">
<svg version="1.1" xmlns="http://www.w3.org/2000/svg" xmlns:xlink="http://www.w3.org/1999/xlink" xml:space="preserve" xmlns:serif="http://www.serif.com/" style="fill-rule:evenodd;clip-rule:evenodd;stroke-linejoin:round;stroke-miterlimit:2;">
    <g transform="matrix(4.16667,0,0,4.16667,1525.83,1241.81)">
        <path d="M0,-14.692C0.361,-13.233 0.542,-10.34 0.542,-5.996L0.542,11.981L5.389,11.981L5.389,-7.417C5.389,-12.543 4.87,-16.316 3.832,-18.743C2.791,-21.168 1.179,-23.097 -1,-24.526C-3.185,-25.955 -5.68,-26.673 -8.497,-26.673C-11.268,-26.673 -13.83,-26.029 -16.186,-24.754C-18.54,-23.469 -20.687,-21.537 -22.627,-18.949L-22.627,-25.702L-27.475,-25.702L-27.475,11.981L-22.627,11.981L-22.627,-1.838C-22.627,-6.807 -22.397,-10.224 -21.934,-12.093C-21.196,-14.953 -19.667,-17.357 -17.346,-19.295C-15.025,-21.234 -12.396,-22.202 -9.464,-22.202C-6.904,-22.202 -4.825,-21.577 -3.23,-20.318C-1.639,-19.06 -0.56,-17.184 0,-14.692" style="fill:rgb(37,34,35);fill-rule:nonzero;"/>
    </g>
    <g transform="matrix(4.16667,0,0,4.16667,1697.31,1134)">
        <path d="M0,26.919C-1.279,29.203 -3.109,31.009 -5.483,32.346C-7.858,33.68 -10.372,34.353 -13.025,34.353C-15.654,34.353 -18.115,33.68 -20.409,32.33C-22.702,30.981 -24.533,29.094 -25.892,26.674C-27.251,24.25 -27.932,21.716 -27.932,19.063C-27.932,16.392 -27.255,13.854 -25.909,11.451C-24.56,9.056 -22.744,7.194 -20.46,5.87C-18.178,4.543 -15.686,3.876 -12.987,3.876C-8.791,3.876 -5.258,5.345 -2.388,8.273C0.486,11.2 1.921,14.846 1.921,19.201C1.921,22.062 1.28,24.638 0,26.919M6.388,37.856L6.388,-11.899L1.609,-11.899L1.609,7.099C-0.284,4.464 -2.484,2.49 -4.989,1.176C-7.496,-0.14 -10.293,-0.798 -13.388,-0.798C-18.744,-0.798 -23.327,1.129 -27.134,4.985C-30.944,8.847 -32.849,13.485 -32.849,18.907C-32.849,24.45 -30.962,29.15 -27.186,33.024C-23.414,36.886 -18.859,38.818 -13.527,38.818C-10.525,38.818 -7.761,38.198 -5.232,36.946C-2.706,35.705 -0.423,33.848 1.609,31.378L1.609,37.856L6.388,37.856Z" style="fill:rgb(37,34,35);fill-rule:nonzero;"/>
    </g>
    <g transform="matrix(4.16667,0,0,4.16667,1382.63,1087.24)">
        <path d="M0,7.997C1.103,7.997 2.047,7.603 2.825,6.824C3.609,6.039 4,5.103 4,4.016C4,2.906 3.609,1.964 2.825,1.179C2.047,0.391 1.103,0 0,0C-1.08,0 -2.012,0.391 -2.795,1.179C-3.576,1.964 -3.966,2.906 -3.966,4.016C-3.966,5.103 -3.576,6.039 -2.795,6.824C-2.012,7.603 -1.08,7.997 0,7.997" style="fill:rgb(37,34,35);fill-rule:nonzero;"/>
    </g>
    <g transform="matrix(4.16667,0,0,4.16667,1198.34,1158.79)">
        <path d="M0,24.844L0,1.351L11.747,13.1L0,24.844ZM-21.347,23.609C-26.966,23.609 -31.519,19.052 -31.519,13.438C-31.519,7.818 -26.966,3.258 -21.347,3.258C-15.728,3.258 -11.175,7.818 -11.175,13.438C-11.175,19.052 -15.728,23.609 -21.347,23.609M-56.951,23.609C-62.569,23.609 -67.123,19.052 -67.123,13.438C-67.123,7.818 -62.569,3.258 -56.951,3.258C-51.333,3.258 -46.777,7.818 -46.777,13.438C-46.777,19.052 -51.333,23.609 -56.951,23.609M18.736,6.108L6.825,-5.8L0,-5.8L0,-17.917L-9.399,-17.917L-9.399,-2.017C-12.731,-4.705 -16.962,-6.321 -21.578,-6.321C-29.38,-6.321 -36.09,-1.713 -39.176,4.928C-42.263,-1.713 -48.973,-6.321 -56.776,-6.321C-61.194,-6.321 -65.254,-4.827 -68.516,-2.348L-68.516,-6.205L-77.846,-6.205L-77.846,42.761L-68.516,42.761L-68.516,28.545C-65.254,31.026 -61.194,32.518 -56.776,32.518C-48.973,32.518 -42.263,27.905 -39.176,21.274C-36.09,27.905 -29.38,32.518 -21.578,32.518C-16.962,32.518 -12.731,30.899 -9.399,28.212L-9.399,31.943L-0.424,31.943L-0.424,32.002L6.825,32.002L18.736,20.087L30.647,32.002L37.375,32.002L37.375,24.75L25.725,13.1L37.375,1.444L37.375,-5.8L30.647,-5.8L18.736,6.108Z" style="fill:rgb(37,34,35);fill-rule:nonzero;"/>
    </g>
    <g transform="matrix(4.16667,0,0,4.16667,420.472,-445.144)">
        <rect x="228.511" y="379.167" width="4.848" height="37.683" style="fill:rgb(37,34,35);"/>
    </g>
    <g transform="matrix(4.16667,0,0,4.16667,420.472,-495.444)">
        <rect x="476.485" y="379.167" width="4.846" height="49.755" style="fill:rgb(37,34,35);"/>
    </g>
    <g transform="matrix(4.16667,0,0,4.16667,2201.36,1120.56)">
        <path d="M0,-7.997C-1.086,-7.997 -2.017,-7.606 -2.797,-6.818C-3.579,-6.033 -3.967,-5.091 -3.967,-3.981C-3.967,-2.895 -3.579,-1.959 -2.797,-1.174C-2.017,-0.394 -1.086,0 0,0C1.103,0 2.042,-0.394 2.824,-1.174C3.602,-1.959 3.996,-2.895 3.996,-3.981C3.996,-5.091 3.602,-6.033 2.824,-6.818C2.042,-7.606 1.103,-7.997 0,-7.997" style="fill:rgb(37,34,35);fill-rule:nonzero;"/>
    </g>
    <g transform="matrix(4.16667,0,0,4.16667,2361.7,1180.25)">
        <path d="M0,15.818C-1.283,18.102 -3.112,19.908 -5.484,21.245C-7.86,22.579 -10.373,23.252 -13.028,23.252C-15.656,23.252 -18.12,22.579 -20.414,21.229C-22.71,19.88 -24.535,17.993 -25.899,15.573C-27.257,13.149 -27.935,10.615 -27.935,7.962C-27.935,5.291 -27.262,2.753 -25.912,0.35C-24.563,-2.045 -22.746,-3.907 -20.462,-5.231C-18.181,-6.558 -15.691,-7.225 -12.99,-7.225C-8.793,-7.225 -5.264,-5.756 -2.388,-2.828C0.483,0.099 1.916,3.745 1.916,8.1C1.916,10.961 1.273,13.537 0,15.818M6.384,26.755L6.384,-10.928L1.604,-10.928L1.604,-4.002C-0.29,-6.637 -2.489,-8.611 -4.995,-9.925C-7.496,-11.241 -10.299,-11.899 -13.392,-11.899C-18.744,-11.899 -23.329,-9.972 -27.14,-6.116C-30.952,-2.254 -32.854,2.384 -32.854,7.806C-32.854,13.349 -30.968,18.049 -27.192,21.923C-23.417,25.785 -18.864,27.717 -13.528,27.717C-10.53,27.717 -7.763,27.097 -5.234,25.845C-2.705,24.604 -0.427,22.747 1.604,20.277L1.604,26.755L6.384,26.755Z" style="fill:rgb(37,34,35);fill-rule:nonzero;"/>
    </g>
    <g transform="matrix(4.16667,0,0,4.16667,420.472,-445.144)">
        <rect x="425.008" y="379.167" width="4.846" height="37.683" style="fill:rgb(37,34,35);"/>
    </g>
    <g transform="matrix(4.16667,0,0,4.16667,2129.3,1285.01)">
        <path d="M0,-35.428C-2.136,-34.358 -4.17,-32.735 -6.093,-30.569L-6.093,-36.069L-11.512,-36.069L-11.512,1.613L-6.093,1.613L-6.093,-11.137C-6.093,-17.668 -5.701,-22.009 -4.92,-24.159C-3.896,-26.951 -2.407,-29.016 -0.451,-30.341C1.507,-31.667 3.539,-32.331 5.645,-32.331C6.547,-32.331 7.66,-32.112 8.987,-31.671L12.281,-35.754C10.295,-36.612 8.426,-37.041 6.684,-37.041C4.368,-37.041 2.137,-36.503 0,-35.428" style="fill:rgb(37,34,35);fill-rule:nonzero;"/>
    </g>
    <g transform="matrix(4.16667,0,0,4.16667,1869.79,1169.76)">
        <path d="M0,21.825C1.213,19.186 1.819,15.276 1.819,10.086L1.819,-8.41L-3.134,-8.41L-3.134,9.183C-3.134,13.891 -3.375,16.978 -3.861,18.426C-4.579,20.55 -5.878,22.264 -7.764,23.574C-9.647,24.875 -11.942,25.525 -14.645,25.525C-17.355,25.525 -19.681,24.859 -21.638,23.518C-23.59,22.175 -24.913,20.356 -25.606,18.048C-26.07,16.427 -26.299,13.479 -26.299,9.183L-26.299,-8.41L-31.148,-8.41L-31.148,9.734C-31.148,15.093 -30.543,19.104 -29.331,21.77C-28.119,24.441 -26.283,26.516 -23.825,28.004C-21.365,29.494 -18.302,30.235 -14.628,30.235C-10.96,30.235 -7.907,29.494 -5.471,28.004C-3.036,26.516 -1.21,24.458 0,21.825" style="fill:rgb(37,34,35);fill-rule:nonzero;"/>
    </g>
    <g transform="matrix(4.16667,0,0,4.16667,1977.17,1176.84)">
        <path d="M0,17.454C0,15.262 -0.64,13.287 -1.91,11.535C-3.205,9.804 -5.66,8.001 -9.27,6.134C-12.23,4.613 -14.176,3.283 -15.098,2.147C-16.025,1.041 -16.486,-0.123 -16.486,-1.346C-16.486,-2.733 -15.926,-3.946 -14.804,-4.985C-13.679,-6.024 -12.333,-6.542 -10.76,-6.542C-8.281,-6.542 -5.747,-5.283 -3.154,-2.766L-0.038,-5.99C-3.556,-9.377 -7.044,-11.081 -10.513,-11.081C-13.498,-11.081 -15.966,-10.134 -17.917,-8.24C-19.873,-6.346 -20.849,-3.974 -20.849,-1.109C-20.849,1.084 -20.237,3.038 -19.009,4.753C-17.787,6.454 -15.47,8.185 -12.068,9.943C-8.903,11.558 -6.861,12.898 -5.964,13.962C-5.059,15.047 -4.606,16.281 -4.606,17.667C-4.606,19.347 -5.294,20.818 -6.657,22.064C-8.024,23.309 -9.675,23.933 -11.621,23.933C-14.397,23.933 -17.023,22.537 -19.499,19.741L-22.547,23.203C-21.253,24.866 -19.618,26.17 -17.638,27.116C-15.666,28.067 -13.589,28.535 -11.412,28.535C-8.155,28.535 -5.435,27.465 -3.265,25.319C-1.091,23.17 0,20.55 0,17.454" style="fill:rgb(37,34,35);fill-rule:nonzero;"/>
    </g>
    <g transform="matrix(4.16667,0,0,4.16667,2035.1,1291.73)">
        <path d="M0,-49.204L-4.846,-49.204L-4.846,-37.683L-11.462,-37.683L-11.462,-33.494L-4.846,-33.494L-4.846,0L0,0L0,-33.494L7.686,-33.494L7.686,-37.683L0,-37.683L0,-49.204Z" style="fill:rgb(37,34,35);fill-rule:nonzero;"/>
    </g>
    <g transform="matrix(4.16667,0,0,4.16667,1028.56,1353.27)">
        <path d="M0,10.509C-0.458,11.326 -1.111,11.972 -1.961,12.451C-2.81,12.929 -3.71,13.169 -4.657,13.169C-5.597,13.169 -6.478,12.927 -7.297,12.445C-8.118,11.962 -8.772,11.288 -9.257,10.423C-9.745,9.557 -9.988,8.649 -9.988,7.701C-9.988,6.744 -9.746,5.836 -9.264,4.98C-8.782,4.123 -8.132,3.457 -7.316,2.983C-6.5,2.508 -5.609,2.27 -4.645,2.27C-3.144,2.27 -1.881,2.795 -0.854,3.841C0.174,4.889 0.687,6.192 0.687,7.749C0.687,8.772 0.458,9.692 0,10.509M0.575,3.421C-0.103,2.482 -0.889,1.776 -1.785,1.305C-2.68,0.835 -3.68,0.599 -4.787,0.599C-6.703,0.599 -8.341,1.287 -9.703,2.666C-11.065,4.045 -11.747,5.704 -11.747,7.646C-11.747,9.626 -11.071,11.308 -9.721,12.692C-8.372,14.072 -6.743,14.765 -4.837,14.765C-3.764,14.765 -2.775,14.543 -1.87,14.097C-0.966,13.65 -0.151,12.986 0.575,12.104L0.575,14.42L2.283,14.42L2.283,-4.256L0.575,-4.256L0.575,3.421Z" style="fill:rgb(37,34,35);fill-rule:nonzero;"/>
    </g>
    <g transform="matrix(4.16667,0,0,4.16667,1080.98,1390.95)">
        <path d="M0,-2.722C0.354,-3.961 0.881,-4.889 1.575,-5.509C2.525,-6.358 3.662,-6.784 4.984,-6.784C5.785,-6.784 6.55,-6.615 7.278,-6.276C8.005,-5.938 8.59,-5.491 9.032,-4.939C9.474,-4.385 9.812,-3.647 10.043,-2.722L0,-2.722ZM10.463,-5.83C9.09,-7.573 7.257,-8.444 4.96,-8.444C2.728,-8.444 0.948,-7.593 -0.382,-5.893C-1.434,-4.554 -1.957,-3.033 -1.957,-1.323C-1.957,0.493 -1.337,2.121 -0.097,3.562C1.143,5.003 2.861,5.722 5.059,5.722C6.049,5.722 6.939,5.572 7.724,5.271C8.509,4.97 9.215,4.53 9.843,3.953C10.471,3.374 11.024,2.614 11.504,1.673L10.043,0.905C9.512,1.785 9.022,2.423 8.567,2.816C8.112,3.214 7.561,3.531 6.912,3.768C6.263,4.008 5.596,4.126 4.91,4.126C3.488,4.126 2.293,3.625 1.327,2.624C0.36,1.624 -0.141,0.341 -0.173,-1.225L11.95,-1.225C11.933,-3.065 11.437,-4.6 10.463,-5.83" style="fill:rgb(37,34,35);fill-rule:nonzero;"/>
    </g>
    <g transform="matrix(4.16667,0,0,4.16667,1179.85,1389.15)">
        <path d="M0,-1.856C-1.06,-2.401 -1.754,-2.876 -2.085,-3.279C-2.416,-3.675 -2.581,-4.094 -2.581,-4.532C-2.581,-5.027 -2.381,-5.46 -1.979,-5.83C-1.577,-6.202 -1.096,-6.389 -0.533,-6.389C0.353,-6.389 1.259,-5.939 2.186,-5.036L3.301,-6.19C2.044,-7.405 0.794,-8.011 -0.445,-8.011C-1.513,-8.011 -2.394,-7.672 -3.093,-6.994C-3.792,-6.318 -4.142,-5.467 -4.142,-4.445C-4.142,-3.659 -3.923,-2.962 -3.484,-2.352C-3.046,-1.741 -2.218,-1.121 -1.001,-0.496C0.131,0.085 0.859,0.562 1.183,0.943C1.505,1.331 1.666,1.772 1.666,2.269C1.666,2.87 1.421,3.394 0.934,3.84C0.446,4.286 -0.146,4.509 -0.841,4.509C-1.834,4.509 -2.773,4.01 -3.659,3.011L-4.748,4.248C-4.285,4.843 -3.7,5.31 -2.993,5.649C-2.287,5.987 -1.545,6.155 -0.768,6.155C0.398,6.155 1.37,5.772 2.147,5.004C2.925,4.237 3.313,3.3 3.313,2.193C3.313,1.409 3.086,0.703 2.631,0.076C2.168,-0.543 1.289,-1.188 0,-1.856" style="fill:rgb(37,34,35);fill-rule:nonzero;"/>
    </g>
    <g transform="matrix(4.16667,0,0,4.16667,1230.03,1346.02)">
        <path d="M0,-2.861C-0.387,-2.861 -0.72,-2.721 -0.998,-2.442C-1.278,-2.16 -1.418,-1.822 -1.418,-1.424C-1.418,-1.037 -1.278,-0.703 -0.998,-0.422C-0.72,-0.14 -0.387,0 0,0C0.394,0 0.731,-0.14 1.011,-0.422C1.291,-0.703 1.43,-1.037 1.43,-1.424C1.43,-1.822 1.291,-2.16 1.011,-2.442C0.731,-2.721 0.394,-2.861 0,-2.861" style="fill:rgb(37,34,35);fill-rule:nonzero;"/>
    </g>
    <g transform="matrix(4.16667,0,0,4.16667,420.472,-101.031)">
        <rect x="193.434" y="349.978" width="1.733" height="13.474" style="fill:rgb(37,34,35);"/>
    </g>
    <g transform="matrix(4.16667,0,0,4.16667,1312.51,1390.54)">
        <path d="M0,2.402C-0.97,3.361 -2.251,3.839 -3.845,3.839C-5.422,3.839 -6.705,3.356 -7.696,2.39C-8.686,1.425 -9.182,0.203 -9.182,-1.275C-9.182,-2.248 -8.943,-3.156 -8.464,-3.993C-7.985,-4.832 -7.324,-5.488 -6.483,-5.961C-5.64,-6.436 -4.728,-6.675 -3.746,-6.675C-2.804,-6.675 -1.925,-6.442 -1.108,-5.98C-0.291,-5.519 0.341,-4.888 0.787,-4.092C1.233,-3.296 1.455,-2.388 1.455,-1.374C1.455,0.187 0.971,1.446 0,2.402M1.369,-5.659C0.559,-6.615 -0.281,-7.303 -1.154,-7.721C-2.027,-8.137 -2.966,-8.346 -3.974,-8.346C-5.188,-8.346 -6.343,-8.032 -7.438,-7.404C-8.533,-6.777 -9.39,-5.925 -10.01,-4.847C-10.631,-3.77 -10.941,-2.607 -10.941,-1.361C-10.941,-0.115 -10.642,1.029 -10.047,2.07C-9.453,3.108 -8.61,3.936 -7.519,4.552C-6.428,5.165 -5.263,5.475 -4.023,5.475C-2.966,5.475 -1.966,5.253 -1.024,4.811C-0.082,4.37 0.716,3.736 1.369,2.91L1.369,3.603C1.369,5.087 1.195,6.166 0.848,6.831C0.5,7.497 -0.08,8.051 -0.894,8.491C-1.708,8.931 -2.706,9.151 -3.888,9.151C-5.087,9.151 -6.091,8.935 -6.901,8.509C-7.711,8.077 -8.372,7.419 -8.885,6.526L-10.767,6.526C-10.281,7.586 -9.747,8.391 -9.169,8.943C-8.591,9.492 -7.842,9.931 -6.922,10.259C-6.002,10.584 -4.964,10.748 -3.808,10.748C-2.231,10.748 -0.881,10.415 0.242,9.747C1.364,9.077 2.152,8.124 2.607,6.887C2.937,6.01 3.102,4.628 3.102,2.737L3.102,-7.999L1.369,-7.999L1.369,-5.659Z" style="fill:rgb(37,34,35);fill-rule:nonzero;"/>
    </g>
    <g transform="matrix(4.16667,0,0,4.16667,1401.5,1410.16)">
        <path d="M0,-12.285C-0.78,-12.797 -1.674,-13.053 -2.681,-13.053C-3.673,-13.053 -4.588,-12.823 -5.43,-12.364C-6.272,-11.907 -7.041,-11.215 -7.734,-10.291L-7.734,-12.706L-9.467,-12.706L-9.467,0.768L-7.734,0.768L-7.734,-4.175C-7.734,-5.949 -7.652,-7.171 -7.486,-7.84C-7.222,-8.863 -6.675,-9.723 -5.845,-10.415C-5.015,-11.109 -4.076,-11.456 -3.028,-11.456C-2.111,-11.456 -1.367,-11.23 -0.797,-10.781C-0.228,-10.331 0.158,-9.659 0.357,-8.768C0.487,-8.248 0.551,-7.211 0.551,-5.66L0.551,0.768L2.284,0.768L2.284,-6.168C2.284,-8 2.098,-9.35 1.727,-10.216C1.355,-11.084 0.78,-11.774 0,-12.285" style="fill:rgb(37,34,35);fill-rule:nonzero;"/>
    </g>
    <g transform="matrix(4.16667,0,0,4.16667,1526.52,1407.98)">
        <path d="M0,-10.896C2.053,-10.896 3.674,-10.109 4.861,-8.53L6.235,-9.385C5.831,-10.063 5.339,-10.62 4.761,-11.057C4.185,-11.495 3.48,-11.85 2.65,-12.122C1.821,-12.395 0.96,-12.531 0.069,-12.531C-1.352,-12.531 -2.635,-12.217 -3.783,-11.59C-4.931,-10.962 -5.831,-10.089 -6.489,-8.97C-7.145,-7.853 -7.473,-6.641 -7.473,-5.338C-7.473,-3.396 -6.771,-1.75 -5.368,-0.395C-3.965,0.958 -2.198,1.635 -0.068,1.635C1.319,1.635 2.555,1.368 3.642,0.834C4.727,0.299 5.592,-0.453 6.235,-1.423L4.861,-2.327C3.608,-0.751 1.991,0.039 0.011,0.039C-1.068,0.039 -2.044,-0.201 -2.913,-0.679C-3.783,-1.158 -4.467,-1.829 -4.967,-2.697C-5.465,-3.562 -5.715,-4.485 -5.715,-5.467C-5.715,-6.975 -5.172,-8.256 -4.089,-9.313C-3.003,-10.368 -1.641,-10.896 0,-10.896" style="fill:rgb(37,34,35);fill-rule:nonzero;"/>
    </g>
    <g transform="matrix(4.16667,0,0,4.16667,1633.06,1373.61)">
        <path d="M0,5.6C-0.472,6.44 -1.11,7.091 -1.913,7.548C-2.717,8.006 -3.6,8.236 -4.561,8.236C-5.522,8.236 -6.405,8.006 -7.208,7.548C-8.01,7.091 -8.648,6.44 -9.121,5.6C-9.593,4.757 -9.829,3.849 -9.829,2.876C-9.829,1.363 -9.312,0.075 -8.277,-0.99C-7.24,-2.053 -6.002,-2.588 -4.561,-2.588C-3.127,-2.588 -1.89,-2.053 -0.852,-0.99C0.189,0.075 0.709,1.363 0.709,2.876C0.709,3.849 0.473,4.757 0,5.6M-4.555,-4.283C-6.638,-4.283 -8.363,-3.528 -9.727,-2.017C-10.968,-0.646 -11.587,0.97 -11.587,2.838C-11.587,4.719 -10.933,6.365 -9.622,7.772C-8.31,9.181 -6.621,9.883 -4.555,9.883C-2.495,9.883 -0.81,9.181 0.501,7.772C1.81,6.365 2.467,4.719 2.467,2.838C2.467,0.964 1.848,-0.658 0.607,-2.03C-0.758,-3.533 -2.479,-4.283 -4.555,-4.283" style="fill:rgb(37,34,35);fill-rule:nonzero;"/>
    </g>
    <g transform="matrix(4.16667,0,0,4.16667,420.472,-122.706)">
        <rect x="301.509" y="349.978" width="1.733" height="18.676" style="fill:rgb(37,34,35);"/>
    </g>
    <g transform="matrix(4.16667,0,0,4.16667,420.472,-122.706)">
        <rect x="311.658" y="349.978" width="1.734" height="18.676" style="fill:rgb(37,34,35);"/>
    </g>
    <g transform="matrix(4.16667,0,0,4.16667,1808.83,1373.5)">
        <path d="M0,5.654C-0.457,6.471 -1.111,7.117 -1.959,7.596C-2.81,8.074 -3.707,8.314 -4.657,8.314C-5.597,8.314 -6.477,8.072 -7.297,7.59C-8.118,7.107 -8.771,6.433 -9.258,5.568C-9.744,4.702 -9.988,3.794 -9.988,2.846C-9.988,1.889 -9.746,0.981 -9.265,0.125C-8.782,-0.732 -8.132,-1.398 -7.315,-1.872C-6.5,-2.347 -5.61,-2.585 -4.646,-2.585C-3.144,-2.585 -1.88,-2.06 -0.854,-1.014C0.173,0.034 0.687,1.337 0.687,2.894C0.687,3.917 0.459,4.837 0,5.654M0.575,-1.434C-0.103,-2.373 -0.888,-3.079 -1.784,-3.55C-2.68,-4.02 -3.68,-4.256 -4.787,-4.256C-6.703,-4.256 -8.34,-3.568 -9.702,-2.189C-11.064,-0.81 -11.746,0.849 -11.746,2.791C-11.746,4.771 -11.07,6.453 -9.721,7.837C-8.371,9.217 -6.743,9.91 -4.836,9.91C-3.763,9.91 -2.774,9.688 -1.871,9.242C-0.966,8.795 -0.151,8.131 0.575,7.249L0.575,9.565L2.283,9.565L2.283,-3.909L0.575,-3.909L0.575,-1.434Z" style="fill:rgb(37,34,35);fill-rule:nonzero;"/>
    </g>
    <g transform="matrix(4.16667,0,0,4.16667,1904.32,1353.8)">
        <path d="M0,10.255C-0.482,11.114 -1.13,11.78 -1.948,12.255C-2.762,12.73 -3.651,12.967 -4.615,12.967C-6.114,12.967 -7.376,12.443 -8.402,11.394C-9.427,10.347 -9.938,9.041 -9.938,7.481C-9.938,6.458 -9.712,5.539 -9.254,4.72C-8.796,3.903 -8.142,3.252 -7.289,2.77C-6.437,2.287 -5.537,2.045 -4.589,2.045C-3.659,2.045 -2.785,2.287 -1.966,2.77C-1.145,3.252 -0.492,3.928 -0.008,4.795C0.479,5.661 0.722,6.574 0.722,7.531C0.722,8.488 0.482,9.397 0,10.255M-4.422,0.472C-5.495,0.472 -6.479,0.693 -7.38,1.135C-8.276,1.576 -9.09,2.245 -9.816,3.135L-9.816,-4.383L-11.549,-4.383L-11.549,14.293L-9.816,14.293L-9.816,11.816C-9.131,12.757 -8.344,13.462 -7.453,13.932C-6.561,14.404 -5.568,14.638 -4.472,14.638C-2.559,14.638 -0.922,13.95 0.439,12.571C1.8,11.193 2.48,9.529 2.48,7.579C2.48,5.607 1.805,3.93 0.459,2.545C-0.891,1.163 -2.518,0.472 -4.422,0.472" style="fill:rgb(37,34,35);fill-rule:nonzero;"/>
    </g>
    <g transform="matrix(4.16667,0,0,4.16667,1994.5,1373.61)">
        <path d="M0,5.6C-0.473,6.44 -1.11,7.091 -1.914,7.548C-2.717,8.006 -3.601,8.236 -4.561,8.236C-5.521,8.236 -6.404,8.006 -7.208,7.548C-8.012,7.091 -8.65,6.44 -9.122,5.6C-9.592,4.757 -9.831,3.849 -9.831,2.876C-9.831,1.363 -9.312,0.075 -8.276,-0.99C-7.24,-2.053 -6.002,-2.588 -4.561,-2.588C-3.128,-2.588 -1.891,-2.053 -0.852,-0.99C0.189,0.075 0.71,1.363 0.71,2.876C0.71,3.849 0.474,4.757 0,5.6M-4.555,-4.283C-6.637,-4.283 -8.363,-3.528 -9.728,-2.017C-10.968,-0.646 -11.587,0.97 -11.587,2.838C-11.587,4.719 -10.932,6.365 -9.621,7.772C-8.311,9.181 -6.622,9.883 -4.555,9.883C-2.495,9.883 -0.81,9.181 0.5,7.772C1.81,6.365 2.468,4.719 2.468,2.838C2.468,0.964 1.847,-0.658 0.605,-2.03C-0.76,-3.533 -2.478,-4.283 -4.555,-4.283" style="fill:rgb(37,34,35);fill-rule:nonzero;"/>
    </g>
    <g transform="matrix(4.16667,0,0,4.16667,2050.89,1410.96)">
        <path d="M0,-12.67C-0.587,-12.286 -1.143,-11.704 -1.672,-10.928L-1.672,-12.898L-3.443,-12.898L-3.443,0.575L-1.672,0.575L-1.672,-3.983C-1.672,-6.318 -1.565,-7.872 -1.349,-8.64C-1.07,-9.638 -0.66,-10.373 -0.124,-10.849C0.413,-11.324 0.97,-11.56 1.547,-11.56C1.796,-11.56 2.099,-11.484 2.465,-11.326L3.368,-12.787C2.822,-13.091 2.311,-13.245 1.833,-13.245C1.197,-13.245 0.586,-13.053 0,-12.67" style="fill:rgb(37,34,35);fill-rule:nonzero;"/>
    </g>
    <g transform="matrix(4.16667,0,0,4.16667,2138.61,1373.5)">
        <path d="M0,5.654C-0.458,6.471 -1.112,7.117 -1.96,7.596C-2.81,8.074 -3.709,8.314 -4.657,8.314C-5.596,8.314 -6.478,8.072 -7.297,7.59C-8.118,7.107 -8.771,6.433 -9.259,5.568C-9.745,4.702 -9.987,3.794 -9.987,2.846C-9.987,1.889 -9.747,0.981 -9.266,0.125C-8.782,-0.732 -8.133,-1.398 -7.316,-1.872C-6.5,-2.347 -5.61,-2.585 -4.644,-2.585C-3.144,-2.585 -1.88,-2.06 -0.854,-1.014C0.173,0.034 0.686,1.337 0.686,2.894C0.686,3.917 0.457,4.837 0,5.654M0.575,-1.434C-0.103,-2.373 -0.888,-3.079 -1.785,-3.55C-2.68,-4.02 -3.681,-4.256 -4.787,-4.256C-6.703,-4.256 -8.341,-3.568 -9.703,-2.189C-11.065,-0.81 -11.747,0.849 -11.747,2.791C-11.747,4.771 -11.07,6.453 -9.722,7.837C-8.372,9.217 -6.743,9.91 -4.837,9.91C-3.764,9.91 -2.776,9.688 -1.871,9.242C-0.967,8.795 -0.152,8.131 0.575,7.249L0.575,9.565L2.283,9.565L2.283,-3.909L0.575,-3.909L0.575,-1.434Z" style="fill:rgb(37,34,35);fill-rule:nonzero;"/>
    </g>
    <g transform="matrix(4.16667,0,0,4.16667,2199.03,1413.35)">
        <path d="M0,-18.476L-1.733,-18.476L-1.733,-13.474L-4.099,-13.474L-4.099,-11.976L-1.733,-11.976L-1.733,0L0,0L0,-11.976L2.749,-11.976L2.749,-13.474L0,-13.474L0,-18.476Z" style="fill:rgb(37,34,35);fill-rule:nonzero;"/>
    </g>
    <g transform="matrix(4.16667,0,0,4.16667,2244.96,1346.02)">
        <path d="M0,-2.861C-0.387,-2.861 -0.721,-2.721 -0.999,-2.442C-1.279,-2.16 -1.419,-1.822 -1.419,-1.424C-1.419,-1.037 -1.279,-0.703 -0.999,-0.422C-0.721,-0.14 -0.387,0 0,0C0.394,0 0.731,-0.14 1.011,-0.422C1.289,-0.703 1.431,-1.037 1.431,-1.424C1.431,-1.822 1.289,-2.16 1.011,-2.442C0.731,-2.721 0.394,-2.861 0,-2.861" style="fill:rgb(37,34,35);fill-rule:nonzero;"/>
    </g>
    <g transform="matrix(4.16667,0,0,4.16667,420.472,-101.031)">
        <rect x="437.015" y="349.978" width="1.734" height="13.474" style="fill:rgb(37,34,35);"/>
    </g>
    <g transform="matrix(4.16667,0,0,4.16667,2330.29,1373.61)">
        <path d="M0,5.6C-0.473,6.44 -1.111,7.091 -1.914,7.548C-2.718,8.006 -3.602,8.236 -4.562,8.236C-5.523,8.236 -6.405,8.006 -7.209,7.548C-8.012,7.091 -8.651,6.44 -9.122,5.6C-9.595,4.757 -9.831,3.849 -9.831,2.876C-9.831,1.363 -9.313,0.075 -8.278,-0.99C-7.241,-2.053 -6.002,-2.588 -4.562,-2.588C-3.129,-2.588 -1.892,-2.053 -0.852,-0.99C0.187,0.075 0.709,1.363 0.709,2.876C0.709,3.849 0.471,4.757 0,5.6M-4.555,-4.283C-6.64,-4.283 -8.364,-3.528 -9.728,-2.017C-10.969,-0.646 -11.589,0.97 -11.589,2.838C-11.589,4.719 -10.934,6.365 -9.623,7.772C-8.312,9.181 -6.623,9.883 -4.555,9.883C-2.496,9.883 -0.81,9.181 0.499,7.772C1.81,6.365 2.466,4.719 2.466,2.838C2.466,0.964 1.845,-0.658 0.604,-2.03C-0.76,-3.533 -2.48,-4.283 -4.555,-4.283" style="fill:rgb(37,34,35);fill-rule:nonzero;"/>
    </g>
    <g transform="matrix(4.16667,0,0,4.16667,2414.51,1410.16)">
        <path d="M0,-12.285C-0.78,-12.797 -1.675,-13.053 -2.681,-13.053C-3.673,-13.053 -4.589,-12.823 -5.43,-12.364C-6.272,-11.907 -7.04,-11.215 -7.734,-10.291L-7.734,-12.706L-9.468,-12.706L-9.468,0.768L-7.734,0.768L-7.734,-4.175C-7.734,-5.949 -7.651,-7.171 -7.487,-7.84C-7.223,-8.863 -6.677,-9.723 -5.846,-10.415C-5.015,-11.109 -4.076,-11.456 -3.028,-11.456C-2.111,-11.456 -1.368,-11.23 -0.799,-10.781C-0.229,-10.331 0.156,-9.659 0.356,-8.768C0.487,-8.248 0.55,-7.211 0.55,-5.66L0.55,0.768L2.284,0.768L2.284,-6.168C2.284,-8 2.099,-9.35 1.727,-10.216C1.355,-11.084 0.78,-11.774 0,-12.285" style="fill:rgb(37,34,35);fill-rule:nonzero;"/>
    </g>
</svg>
