<?xml version="1.0" encoding="UTF-8" standalone="no"?><!DOCTYPE svg PUBLIC "-//W3C//DTD SVG 1.1//EN" "http://www.w3.org/Graphics/SVG/1.1/DTD/svg11.dtd"><svg width="100%" height="100%" viewBox="0 0 1553 352" version="1.1" xmlns="http://www.w3.org/2000/svg" xmlns:xlink="http://www.w3.org/1999/xlink" xml:space="preserve" xmlns:serif="http://www.serif.com/" style="fill-rule:evenodd;clip-rule:evenodd;stroke-linejoin:round;stroke-miterlimit:2;"><path d="M651.844,96.465c1.504,6.079 2.258,18.133 2.258,36.233l0,74.904l20.196,0l-0,-80.825c-0,-21.358 -2.163,-37.079 -6.488,-47.191c-4.337,-10.104 -11.054,-18.142 -20.133,-24.096c-9.104,-5.954 -19.5,-8.946 -31.237,-8.946c-11.546,0 -22.221,2.683 -32.038,7.996c-9.808,5.354 -18.754,13.404 -26.837,24.187l-0,-28.137l-20.2,-0l-0,157.012l20.2,0l-0,-57.579c-0,-20.704 0.958,-34.941 2.887,-42.729c3.075,-11.917 9.446,-21.933 19.117,-30.008c9.671,-8.079 20.625,-12.113 32.841,-12.113c10.667,0 19.33,2.604 25.975,7.85c6.63,5.242 11.125,13.059 13.459,23.442" style="fill:#fff;fill-rule:nonzero;"/><path d="M823.331,162.032c-5.329,9.516 -12.954,17.041 -22.846,22.612c-9.895,5.558 -20.37,8.363 -31.425,8.363c-10.954,-0 -21.208,-2.805 -30.766,-8.43c-9.554,-5.62 -17.184,-13.483 -22.846,-23.566c-5.663,-10.1 -8.5,-20.659 -8.5,-31.713c-0,-11.129 2.821,-21.704 8.429,-31.716c5.621,-9.98 13.188,-17.738 22.704,-23.255c9.509,-5.529 19.892,-8.308 31.138,-8.308c17.483,0 32.204,6.121 44.162,18.321c11.975,12.196 17.954,27.387 17.954,45.533c0,11.921 -2.67,22.654 -8.004,32.159m26.617,45.57l-0,-207.312l-19.913,-0l0,79.158c-7.887,-10.979 -17.054,-19.204 -27.491,-24.679c-10.446,-5.483 -22.1,-8.225 -34.996,-8.225c-22.317,0 -41.413,8.029 -57.275,24.096c-15.875,16.092 -23.813,35.417 -23.813,58.008c0,23.096 7.863,42.679 23.596,58.821c15.717,16.092 34.696,24.142 56.913,24.142c12.508,-0 24.025,-2.584 34.562,-7.8c10.525,-5.171 20.038,-12.909 28.504,-23.2l0,26.991l19.913,0Z" style="fill:#fff;fill-rule:nonzero;"/><path d="M508.648,36.427c4.596,-0 8.529,-1.642 11.771,-4.888c3.266,-3.271 4.896,-7.171 4.896,-11.7c-0,-4.625 -1.63,-8.55 -4.896,-11.821c-3.242,-3.283 -7.175,-4.912 -11.771,-4.912c-4.5,-0 -8.383,1.629 -11.646,4.912c-3.254,3.271 -4.879,7.196 -4.879,11.821c-0,4.529 1.625,8.429 4.879,11.7c3.263,3.246 7.146,4.888 11.646,4.888" style="fill:#fff;fill-rule:nonzero;"/><path d="M324.358,178.171l0,-97.888l48.946,48.955l-48.946,48.933Zm-88.945,-5.146c-23.413,0 -42.384,-18.987 -42.384,-42.379c0,-23.417 18.971,-42.417 42.384,-42.417c23.412,0 42.383,19 42.383,42.417c-0,23.392 -18.971,42.379 -42.383,42.379m-148.35,0c-23.409,0 -42.384,-18.987 -42.384,-42.379c0,-23.417 18.975,-42.417 42.384,-42.417c23.408,0 42.391,19 42.391,42.417c0,23.392 -18.983,42.379 -42.391,42.379m315.362,-72.921l-49.629,-49.616l-28.438,-0l0,-50.488l-39.162,0l-0,66.25c-13.883,-11.2 -31.513,-17.933 -50.746,-17.933c-32.508,-0 -60.467,19.2 -73.325,46.871c-12.862,-27.671 -40.821,-46.871 -73.333,-46.871c-18.409,-0 -35.325,6.225 -48.917,16.554l0,-16.071l-38.875,0l0,204.025l38.875,0l0,-59.233c13.592,10.337 30.508,16.554 48.917,16.554c32.512,-0 60.471,-19.221 73.333,-46.85c12.858,27.629 40.817,46.85 73.325,46.85c19.233,-0 36.863,-6.746 50.746,-17.942l-0,15.546l37.396,0l-0,0.246l30.204,-0l49.629,-49.646l49.629,49.646l28.034,-0l-0,-30.217l-48.542,-48.541l48.542,-48.567l-0,-30.183l-28.034,-0l-49.629,49.616Z" style="fill:#fff;fill-rule:nonzero;"/><rect x="498.619" y="50.588" width="20.2" height="157.012" style="fill:#fff;"/><rect x="1531.84" y="0.288" width="20.192" height="207.313" style="fill:#fff;"/><path d="M1327.38,3.108c-4.525,-0 -8.404,1.629 -11.654,4.912c-3.259,3.271 -4.875,7.196 -4.875,11.821c-0,4.525 1.616,8.425 4.875,11.696c3.25,3.25 7.129,4.892 11.654,4.892c4.596,-0 8.508,-1.642 11.766,-4.892c3.242,-3.271 4.884,-7.171 4.884,-11.696c-0,-4.625 -1.642,-8.55 -4.884,-11.821c-3.258,-3.283 -7.17,-4.912 -11.766,-4.912" style="fill:#fff;fill-rule:nonzero;"/><path d="M1487.72,162.032c-5.346,9.516 -12.966,17.041 -22.85,22.612c-9.9,5.558 -20.371,8.363 -31.433,8.363c-10.95,-0 -21.217,-2.805 -30.775,-8.43c-9.567,-5.62 -17.171,-13.483 -22.854,-23.566c-5.659,-10.1 -8.484,-20.659 -8.484,-31.713c0,-11.129 2.805,-21.704 8.43,-31.716c5.62,-9.98 13.191,-17.738 22.708,-23.255c9.504,-5.529 19.879,-8.308 31.133,-8.308c17.488,0 32.192,6.121 44.175,18.321c11.963,12.196 17.934,27.387 17.934,45.533c-0,11.921 -2.68,22.654 -7.984,32.159m26.6,45.57l0,-157.012l-19.916,-0l-0,28.858c-7.892,-10.979 -17.055,-19.204 -27.496,-24.679c-10.421,-5.483 -22.1,-8.225 -34.988,-8.225c-22.3,0 -41.404,8.029 -57.283,24.096c-15.883,16.092 -23.808,35.417 -23.808,58.008c-0,23.096 7.858,42.679 23.591,58.821c15.729,16.092 34.7,24.142 56.934,24.142c12.491,-0 24.02,-2.584 34.558,-7.8c10.537,-5.171 20.029,-12.909 28.492,-23.2l-0,26.991l19.916,0Z" style="fill:#fff;fill-rule:nonzero;"/><rect x="1317.36" y="50.588" width="20.192" height="157.012" style="fill:#fff;"/><path d="M1255.32,53.263c-8.9,4.459 -17.375,11.221 -25.387,20.246l-0,-22.917l-22.579,0l-0,157.009l22.579,-0l-0,-53.125c-0,-27.213 1.633,-45.3 4.887,-54.259c4.267,-11.633 10.471,-20.237 18.621,-25.758c8.159,-5.525 16.625,-8.292 25.4,-8.292c3.758,0 8.396,0.913 13.925,2.75l13.725,-17.012c-8.275,-3.575 -16.062,-5.363 -23.321,-5.363c-9.65,0 -18.946,2.242 -27.85,6.721" style="fill:#fff;fill-rule:nonzero;"/><path d="M995.811,176.57c5.054,-10.996 7.579,-27.288 7.579,-48.913l0,-77.067l-20.637,0l-0,73.305c-0,19.616 -1.004,32.479 -3.029,38.512c-2.992,8.85 -8.404,15.992 -16.263,21.45c-7.846,5.421 -17.408,8.129 -28.671,8.129c-11.291,0 -20.983,-2.775 -29.137,-8.362c-8.133,-5.596 -13.646,-13.175 -16.533,-22.792c-1.934,-6.754 -2.888,-19.037 -2.888,-36.937l0,-73.305l-20.204,0l-0,75.6c-0,22.33 2.521,39.042 7.571,50.15c5.05,11.13 12.7,19.775 22.941,25.975c10.25,6.209 23.013,9.296 38.321,9.296c15.284,0 28.004,-3.087 38.154,-9.296c10.146,-6.2 17.755,-14.775 22.796,-25.745" style="fill:#fff;fill-rule:nonzero;"/><path d="M1103.18,165.437c0,-9.134 -2.666,-17.363 -7.958,-24.663c-5.396,-7.212 -15.625,-14.725 -30.667,-22.504c-12.333,-6.338 -20.441,-11.879 -24.283,-16.613c-3.862,-4.608 -5.783,-9.458 -5.783,-14.554c-0,-5.779 2.333,-10.833 7.008,-15.162c4.688,-4.329 10.296,-6.488 16.85,-6.488c10.329,0 20.888,5.246 31.692,15.734l12.983,-13.434c-14.658,-14.112 -29.192,-21.212 -43.646,-21.212c-12.437,-0 -22.721,3.946 -30.85,11.837c-8.15,7.892 -12.216,17.775 -12.216,29.713c-0,9.137 2.55,17.279 7.666,24.425c5.092,7.087 14.746,14.3 28.921,21.625c13.188,6.729 21.696,12.312 25.433,16.746c3.771,4.52 5.659,9.662 5.659,15.437c-0,7 -2.867,13.129 -8.546,18.321c-5.696,5.187 -12.575,7.787 -20.683,7.787c-11.567,0 -22.509,-5.816 -32.825,-17.466l-12.7,14.425c5.391,6.929 12.204,12.362 20.454,16.304c8.216,3.962 16.871,5.912 25.941,5.912c13.571,0 24.905,-4.458 33.946,-13.4c9.059,-8.954 13.604,-19.87 13.604,-32.77" style="fill:#fff;fill-rule:nonzero;"/><path d="M1161.12,2.586l-20.192,0l0,48.004l-27.567,0l0,17.455l27.567,-0l0,139.558l20.192,-0l-0,-139.558l32.025,-0l-0,-17.455l-32.025,0l-0,-48.004Z" style="fill:#fff;fill-rule:nonzero;"/><path d="M154.578,312.929c-1.909,3.404 -4.63,6.096 -8.171,8.092c-3.538,1.991 -7.288,2.991 -11.234,2.991c-3.916,0 -7.587,-1.008 -11,-3.016c-3.42,-2.013 -6.145,-4.821 -8.166,-8.425c-2.034,-3.609 -3.046,-7.392 -3.046,-11.342c-0,-3.987 1.008,-7.771 3.017,-11.337c2.008,-3.571 4.716,-6.346 8.116,-8.321c3.4,-1.979 7.113,-2.971 11.129,-2.971c6.255,-0 11.517,2.187 15.796,6.546c4.284,4.366 6.421,9.796 6.421,16.283c0,4.263 -0.954,8.096 -2.862,11.5m2.395,-29.533c-2.825,-3.913 -6.1,-6.854 -9.833,-8.817c-3.729,-1.958 -7.896,-2.942 -12.508,-2.942c-7.984,0 -14.809,2.867 -20.484,8.613c-5.675,5.746 -8.516,12.658 -8.516,20.75c-0,8.25 2.816,15.258 8.441,21.025c5.621,5.75 12.409,8.637 20.35,8.637c4.471,0 8.592,-0.925 12.363,-2.783c3.767,-1.862 7.162,-4.629 10.187,-8.304l0,9.65l7.117,-0l0,-77.817l-7.117,0l0,31.988Z" style="fill:#fff;fill-rule:nonzero;"/><path d="M207.001,295.477c1.475,-5.162 3.671,-9.029 6.563,-11.612c3.958,-3.538 8.696,-5.313 14.204,-5.313c3.337,0 6.525,0.705 9.558,2.117c3.029,1.408 5.467,3.271 7.309,5.571c1.841,2.308 3.25,5.383 4.212,9.237l-41.846,0Zm43.596,-12.95c-5.721,-7.262 -13.358,-10.891 -22.929,-10.891c-9.3,-0 -16.717,3.546 -22.258,10.629c-4.384,5.579 -6.563,11.917 -6.563,19.042c0,7.566 2.583,14.35 7.75,20.354c5.167,6.004 12.325,9 21.483,9c4.125,-0 7.834,-0.625 11.105,-1.879c3.27,-1.255 6.212,-3.088 8.829,-5.492c2.616,-2.413 4.921,-5.579 6.921,-9.5l-6.088,-3.2c-2.212,3.667 -4.254,6.325 -6.15,7.962c-1.896,1.659 -4.192,2.98 -6.896,3.967c-2.704,1 -5.483,1.492 -8.341,1.492c-5.925,-0 -10.905,-2.088 -14.93,-6.259c-4.029,-4.166 -6.116,-9.512 -6.25,-16.037l50.513,-0c-0.071,-7.667 -2.138,-14.063 -6.196,-19.188" style="fill:#fff;fill-rule:nonzero;"/><path d="M305.863,297.281c-4.417,-2.271 -7.308,-4.25 -8.688,-5.929c-1.379,-1.65 -2.066,-3.396 -2.066,-5.221c-0,-2.062 0.833,-3.866 2.508,-5.408c1.675,-1.55 3.679,-2.329 6.025,-2.329c3.692,-0 7.467,1.875 11.329,5.637l4.646,-4.808c-5.237,-5.063 -10.446,-7.588 -15.608,-7.588c-4.45,0 -8.121,1.413 -11.034,4.238c-2.912,2.817 -4.37,6.362 -4.37,10.621c-0,3.275 0.912,6.179 2.741,8.721c1.825,2.545 5.275,5.129 10.346,7.733c4.717,2.421 7.75,4.408 9.1,5.996c1.342,1.616 2.013,3.454 2.013,5.525c-0,2.504 -1.021,4.687 -3.05,6.546c-2.034,1.858 -4.5,2.787 -7.396,2.787c-4.138,0 -8.05,-2.079 -11.742,-6.242l-4.537,5.155c1.929,2.479 4.366,4.425 7.312,5.837c2.942,1.408 6.033,2.108 9.271,2.108c4.858,0 8.908,-1.595 12.146,-4.795c3.241,-3.196 4.858,-7.1 4.858,-11.713c0,-3.267 -0.946,-6.208 -2.842,-8.821c-1.929,-2.579 -5.591,-5.266 -10.962,-8.05" style="fill:#fff;fill-rule:nonzero;"/><path d="M356.048,249.969c-1.613,0 -3,0.583 -4.158,1.746c-1.167,1.175 -1.75,2.583 -1.75,4.242c-0,1.612 0.583,3.004 1.75,4.175c1.158,1.175 2.545,1.758 4.158,1.758c1.642,-0 3.046,-0.583 4.212,-1.758c1.167,-1.171 1.746,-2.563 1.746,-4.175c0,-1.659 -0.579,-3.067 -1.746,-4.242c-1.166,-1.163 -2.57,-1.746 -4.212,-1.746" style="fill:#fff;fill-rule:nonzero;"/><rect x="352.465" y="273.08" width="7.221" height="56.142" style="fill:#fff;"/><path d="M438.529,316.42c-4.042,3.995 -9.379,5.987 -16.021,5.987c-6.57,0 -11.916,-2.012 -16.046,-6.037c-4.125,-4.021 -6.191,-9.113 -6.191,-15.271c-0,-4.054 0.996,-7.838 2.991,-11.325c1.996,-3.496 4.75,-6.229 8.255,-8.2c3.512,-1.979 7.312,-2.975 11.404,-2.975c3.925,-0 7.587,0.971 10.991,2.896c3.405,1.92 6.038,4.55 7.896,7.866c1.859,3.317 2.784,7.1 2.784,11.325c-0,6.504 -2.017,11.75 -6.063,15.734m5.704,-33.588c-3.375,-3.983 -6.875,-6.85 -10.512,-8.592c-3.638,-1.733 -7.55,-2.604 -11.75,-2.604c-5.059,0 -9.871,1.309 -14.434,3.925c-4.562,2.613 -8.133,6.163 -10.716,10.654c-2.588,4.488 -3.879,9.334 -3.879,14.525c-0,5.192 1.246,9.959 3.725,14.296c2.475,4.325 5.987,7.775 10.533,10.342c4.546,2.554 9.4,3.846 14.567,3.846c4.404,-0 8.57,-0.925 12.495,-2.767c3.925,-1.837 7.25,-4.479 9.971,-7.921l0,2.888c0,6.183 -0.725,10.679 -2.171,13.45c-1.45,2.775 -3.866,5.083 -7.258,6.916c-3.392,1.834 -7.55,2.75 -12.475,2.75c-4.996,0 -9.179,-0.9 -12.554,-2.675c-3.375,-1.8 -6.129,-4.541 -8.267,-8.262l-7.841,-0c2.025,4.417 4.25,7.771 6.658,10.071c2.408,2.287 5.529,4.116 9.362,5.483c3.834,1.354 8.159,2.038 12.975,2.038c6.571,-0 12.196,-1.388 16.875,-4.171c4.675,-2.792 7.959,-6.763 9.855,-11.917c1.375,-3.654 2.062,-9.412 2.062,-17.292l0,-44.733l-7.221,0l0,9.75Z" style="fill:#fff;fill-rule:nonzero;"/><path d="M527.514,274.837c-3.25,-2.134 -6.975,-3.2 -11.171,-3.2c-4.133,-0 -7.946,0.958 -11.454,2.87c-3.508,1.905 -6.712,4.788 -9.6,8.638l0,-10.063l-7.221,0l0,56.142l7.221,0l0,-20.596c0,-7.391 0.342,-12.483 1.034,-15.271c1.1,-4.262 3.379,-7.845 6.837,-10.729c3.458,-2.891 7.371,-4.337 11.738,-4.337c3.82,-0 6.92,0.941 9.295,2.812c2.371,1.875 3.98,4.675 4.809,8.388c0.541,2.166 0.808,6.487 0.808,12.95l0,26.783l7.221,0l-0,-28.9c-0,-7.633 -0.775,-13.258 -2.321,-16.867c-1.55,-3.616 -3.946,-6.491 -7.196,-8.62" style="fill:#fff;fill-rule:nonzero;"/><path d="M652.54,278.45c8.554,-0 15.308,3.279 20.254,9.858l5.725,-3.562c-1.683,-2.825 -3.733,-5.146 -6.142,-6.967c-2.399,-1.825 -5.337,-3.304 -8.795,-4.437c-3.455,-1.138 -7.042,-1.705 -10.755,-1.705c-5.92,0 -11.266,1.309 -16.05,3.921c-4.783,2.617 -8.533,6.254 -11.275,10.917c-2.733,4.654 -4.1,9.704 -4.1,15.133c0,8.092 2.925,14.95 8.771,20.596c5.846,5.638 13.209,8.458 22.084,8.458c5.779,0 10.929,-1.112 15.458,-3.337c4.521,-2.229 8.125,-5.363 10.804,-9.404l-5.725,-3.767c-5.221,6.567 -11.958,9.858 -20.208,9.858c-4.496,0 -8.563,-1 -12.183,-2.991c-3.625,-1.996 -6.475,-4.792 -8.559,-8.409c-2.075,-3.604 -3.116,-7.45 -3.116,-11.541c-0,-6.284 2.262,-11.621 6.774,-16.025c4.525,-4.396 10.201,-6.596 17.038,-6.596" style="fill:#fff;fill-rule:nonzero;"/><path d="M759.082,312.817c-1.967,3.5 -4.625,6.213 -7.971,8.117c-3.35,1.908 -7.029,2.866 -11.033,2.866c-4.004,0 -7.683,-0.958 -11.029,-2.866c-3.342,-1.904 -6,-4.617 -7.971,-8.117c-1.967,-3.512 -2.95,-7.296 -2.95,-11.35c-0,-6.304 2.154,-11.671 6.467,-16.108c4.32,-4.429 9.479,-6.659 15.483,-6.659c5.975,0 11.129,2.23 15.454,6.659c4.338,4.437 6.504,9.804 6.504,16.108c0,4.054 -0.983,7.838 -2.954,11.35m-18.979,-41.179c-8.679,-0 -15.867,3.146 -21.55,9.442c-5.171,5.712 -7.75,12.445 -7.75,20.229c-0,7.837 2.725,14.696 8.187,20.558c5.467,5.871 12.505,8.796 21.113,8.796c8.583,-0 15.604,-2.925 21.067,-8.796c5.454,-5.862 8.191,-12.721 8.191,-20.558c0,-7.809 -2.579,-14.567 -7.75,-20.284c-5.687,-6.262 -12.858,-9.387 -21.508,-9.387" style="fill:#fff;fill-rule:nonzero;"/><rect x="802.777" y="251.405" width="7.221" height="77.817" style="fill:#fff;"/><rect x="845.065" y="251.405" width="7.225" height="77.817" style="fill:#fff;"/><path d="M934.85,312.929c-1.905,3.404 -4.63,6.096 -8.163,8.092c-3.546,1.991 -7.283,2.991 -11.242,2.991c-3.916,0 -7.583,-1.008 -11,-3.016c-3.42,-2.013 -6.141,-4.821 -8.17,-8.425c-2.025,-3.609 -3.042,-7.392 -3.042,-11.342c-0,-3.987 1.008,-7.771 3.012,-11.337c2.013,-3.571 4.721,-6.346 8.125,-8.321c3.396,-1.979 7.105,-2.971 11.121,-2.971c6.259,-0 11.525,2.187 15.8,6.546c4.279,4.366 6.421,9.796 6.421,16.283c0,4.263 -0.95,8.096 -2.862,11.5m2.395,-29.533c-2.825,-3.913 -6.095,-6.854 -9.829,-8.817c-3.733,-1.958 -7.9,-2.942 -12.512,-2.942c-7.984,0 -14.804,2.867 -20.479,8.613c-5.675,5.746 -8.517,12.658 -8.517,20.75c-0,8.25 2.817,15.258 8.437,21.025c5.625,5.75 12.409,8.637 20.355,8.637c4.47,0 8.591,-0.925 12.354,-2.783c3.771,-1.862 7.166,-4.629 10.191,-8.304l0,9.65l7.117,-0l0,-56.142l-7.117,0l0,10.313Z" style="fill:#fff;fill-rule:nonzero;"/><path d="M1030.34,312.398c-2.008,3.579 -4.708,6.354 -8.116,8.333c-3.392,1.979 -7.096,2.967 -11.113,2.967c-6.246,-0 -11.504,-2.183 -15.779,-6.554c-4.271,-4.363 -6.4,-9.804 -6.4,-16.304c-0,-4.263 0.942,-8.092 2.85,-11.505c1.908,-3.404 4.633,-6.116 8.187,-8.125c3.55,-2.012 7.3,-3.02 11.25,-3.02c3.875,-0 7.517,1.008 10.93,3.02c3.42,2.009 6.141,4.825 8.158,8.438c2.029,3.608 3.042,7.412 3.042,11.4c-0,3.987 -1,7.775 -3.009,11.35m-18.425,-40.763c-4.471,0 -8.571,0.921 -12.325,2.763c-3.733,1.837 -7.125,4.625 -10.15,8.333l0,-31.325l-7.221,0l0,77.817l7.221,-0l0,-10.321c2.854,3.921 6.134,6.858 9.846,8.817c3.717,1.966 7.854,2.941 12.421,2.941c7.971,0 14.792,-2.866 20.462,-8.612c5.671,-5.742 8.505,-12.675 8.505,-20.8c-0,-8.217 -2.813,-15.204 -8.421,-20.975c-5.625,-5.758 -12.404,-8.638 -20.338,-8.638" style="fill:#fff;fill-rule:nonzero;"/><path d="M1120.52,312.817c-1.971,3.5 -4.626,6.213 -7.976,8.117c-3.345,1.908 -7.029,2.866 -11.029,2.866c-4,0 -7.679,-0.958 -11.029,-2.866c-3.35,-1.904 -6.008,-4.617 -7.975,-8.117c-1.958,-3.512 -2.954,-7.296 -2.954,-11.35c-0,-6.304 2.162,-11.671 6.479,-16.108c4.317,-4.429 9.475,-6.659 15.479,-6.659c5.971,0 11.125,2.23 15.454,6.659c4.338,4.437 6.509,9.804 6.509,16.108c-0,4.054 -0.984,7.838 -2.959,11.35m-18.979,-41.179c-8.675,-0 -15.866,3.146 -21.554,9.442c-5.167,5.712 -7.746,12.445 -7.746,20.229c0,7.837 2.73,14.696 8.192,20.558c5.458,5.871 12.496,8.796 21.108,8.796c8.584,-0 15.605,-2.925 21.063,-8.796c5.458,-5.862 8.2,-12.721 8.2,-20.558c-0,-7.809 -2.588,-14.567 -7.763,-20.284c-5.687,-6.262 -12.846,-9.387 -21.5,-9.387" style="fill:#fff;fill-rule:nonzero;"/><path d="M1176.9,274.033c-2.446,1.6 -4.763,4.025 -6.967,7.259l0,-8.209l-7.379,0l0,56.138l7.379,-0l0,-18.992c0,-9.729 0.446,-16.204 1.346,-19.404c1.163,-4.158 2.871,-7.221 5.104,-9.204c2.238,-1.979 4.559,-2.963 6.963,-2.963c1.037,0 2.3,0.317 3.825,0.975l3.762,-6.087c-2.275,-1.267 -4.404,-1.908 -6.395,-1.908c-2.65,-0 -5.196,0.8 -7.638,2.395" style="fill:#fff;fill-rule:nonzero;"/><path d="M1264.63,312.929c-1.908,3.404 -4.633,6.096 -8.167,8.092c-3.541,1.991 -7.287,2.991 -11.237,2.991c-3.913,0 -7.588,-1.008 -11,-3.016c-3.421,-2.013 -6.142,-4.821 -8.175,-8.425c-2.025,-3.609 -3.034,-7.392 -3.034,-11.342c0,-3.987 1,-7.771 3.005,-11.337c2.016,-3.571 4.72,-6.346 8.125,-8.321c3.4,-1.979 7.108,-2.971 11.133,-2.971c6.25,-0 11.517,2.187 15.792,6.546c4.279,4.366 6.416,9.796 6.416,16.283c0,4.263 -0.954,8.096 -2.858,11.5m2.396,-29.533c-2.825,-3.913 -6.096,-6.854 -9.834,-8.817c-3.729,-1.958 -7.9,-2.942 -12.508,-2.942c-7.983,0 -14.808,2.867 -20.483,8.613c-5.675,5.746 -8.517,12.658 -8.517,20.75c0,8.25 2.821,15.258 8.438,21.025c5.625,5.75 12.412,8.637 20.354,8.637c4.471,0 8.587,-0.925 12.358,-2.783c3.767,-1.862 7.163,-4.629 10.192,-8.304l-0,9.65l7.116,-0l0,-56.142l-7.116,0l-0,10.313Z" style="fill:#fff;fill-rule:nonzero;"/><path d="M1325.04,252.24l-7.221,-0l0,20.842l-9.858,-0l-0,6.241l9.858,0l0,49.9l7.221,0l-0,-49.9l11.454,0l0,-6.241l-11.454,-0l-0,-20.842Z" style="fill:#fff;fill-rule:nonzero;"/><path d="M1370.98,249.969c-1.612,0 -3.004,0.583 -4.162,1.746c-1.167,1.175 -1.75,2.583 -1.75,4.242c-0,1.612 0.583,3.004 1.75,4.175c1.158,1.175 2.55,1.758 4.162,1.758c1.642,-0 3.046,-0.583 4.213,-1.758c1.158,-1.171 1.75,-2.563 1.75,-4.175c-0,-1.659 -0.592,-3.067 -1.75,-4.242c-1.167,-1.163 -2.571,-1.746 -4.213,-1.746" style="fill:#fff;fill-rule:nonzero;"/><rect x="1367.38" y="273.08" width="7.225" height="56.142" style="fill:#fff;"/><path d="M1456.31,312.817c-1.971,3.5 -4.629,6.213 -7.975,8.117c-3.35,1.908 -7.033,2.866 -11.033,2.866c-4.004,0 -7.679,-0.958 -11.029,-2.866c-3.346,-1.904 -6.009,-4.617 -7.971,-8.117c-1.971,-3.512 -2.954,-7.296 -2.954,-11.35c-0,-6.304 2.158,-11.671 6.471,-16.108c4.32,-4.429 9.483,-6.659 15.483,-6.659c5.971,0 11.125,2.23 15.458,6.659c4.329,4.437 6.504,9.804 6.504,16.108c0,4.054 -0.991,7.838 -2.954,11.35m-18.979,-41.179c-8.687,-0 -15.871,3.146 -21.554,9.442c-5.171,5.712 -7.754,12.445 -7.754,20.229c-0,7.837 2.729,14.696 8.191,20.558c5.463,5.871 12.5,8.796 21.117,8.796c8.579,-0 15.604,-2.925 21.058,-8.796c5.463,-5.862 8.196,-12.721 8.196,-20.558c0,-7.809 -2.587,-14.567 -7.758,-20.284c-5.683,-6.262 -12.85,-9.387 -21.496,-9.387" style="fill:#fff;fill-rule:nonzero;"/><path d="M1540.53,274.837c-3.25,-2.134 -6.979,-3.2 -11.171,-3.2c-4.133,-0 -7.95,0.958 -11.454,2.87c-3.508,1.905 -6.708,4.788 -9.6,8.638l-0,-10.063l-7.225,0l-0,56.142l7.225,0l-0,-20.596c-0,-7.391 0.346,-12.483 1.029,-15.271c1.1,-4.262 3.375,-7.845 6.838,-10.729c3.462,-2.891 7.375,-4.337 11.741,-4.337c3.821,-0 6.917,0.941 9.288,2.812c2.375,1.875 3.979,4.675 4.812,8.388c0.546,2.166 0.809,6.487 0.809,12.95l-0,26.783l7.225,0l-0,-28.9c-0,-7.633 -0.771,-13.258 -2.321,-16.867c-1.55,-3.616 -3.946,-6.491 -7.196,-8.62" style="fill:#fff;fill-rule:nonzero;"/></svg>